# xmcd
#
# Track frame offsets: 
#        150
#        4515
#        27894
#        50030
#        71227
#        93475
#        116940
#        137237
#        153557
#
# Disc length: 2310 seconds
#
# Revision: 4
# Processed by: cddbd v1.5.2PL0 Copyright (c) Steve Scherf et al.
# Submitted via: ExactAudioCopy v1.0b1
#
DISCID=7e090409
DTITLE=Graham Central Station - Graham Central Station
DYEAR=1974
DGENRE=Funk
TTITLE0=We've Been Waiting
TTITLE1=It Ain't No Fun To Me
TTITLE2=Hair
TTITLE3=We Be's Gettin' Down
TTITLE4=Tell Me What It Is
TTITLE5=Can You Handle It
TTITLE6=People
TTITLE7=Why
TTITLE8=Ghetto
EXTD=Label - Warner Bros.\n\nAll songs written by Larry Graham, except
EXTD=:\n2. Al Green\n7. L. Graham-F. Stone YEAR: 1973
EXTT0=
EXTT1=
EXTT2=
EXTT3=
EXTT4=
EXTT5=
EXTT6=
EXTT7=
EXTT8=
PLAYORDER=
